<svg xmlns="http://www.w3.org/2000/svg" viewBox="0 0 1250 650" width="100%" height="100%">
  <defs>
    <marker id="arrow" viewBox="0 0 10 10" refX="8" refY="5" markerWidth="6" markerHeight="6" orient="auto">
      <path d="M 0 0 L 10 5 L 0 10 z" fill="#38bdf8" />
    </marker>
    <marker id="arrow-red" viewBox="0 0 10 10" refX="8" refY="5" markerWidth="6" markerHeight="6" orient="auto">
      <path d="M 0 0 L 10 5 L 0 10 z" fill="#f43f5e" />
    </marker>

    <g id="icon-clock" stroke="currentColor" stroke-width="2" fill="none" stroke-linecap="round" stroke-linejoin="round">
      <circle cx="12" cy="12" r="10"></circle>
      <polyline points="12 6 12 12 16 14"></polyline>
    </g>
  </defs>
  <style>
    .bg { fill: #0f172a; rx: 16px; }
    .subgraph { fill: #1e293b; fill-opacity: 0.3; stroke: #334155; stroke-width: 2; stroke-dasharray: 6 4; rx: 12px; }
    .box { fill: #1e293b; stroke: #475569; stroke-width: 2; rx: 8px; }
    .box-ai { stroke: #a855f7; }
    .box-file { stroke: #eab308; }
    .box-ui { fill: #064e3b; stroke: #10b981; }
    .box-human { fill: rgba(244, 63, 94, 0.1); stroke: #f43f5e; stroke-dasharray: 6 4; }
    .text { font-family: ui-sans-serif, system-ui, -apple-system, BlinkMacSystemFont, "Segoe UI", Roboto, "Helvetica Neue", Arial, sans-serif; font-size: 14px; font-weight: 600; fill: #f8fafc; text-anchor: middle; dominant-baseline: middle; }
    .text-sm { font-family: ui-sans-serif, system-ui, -apple-system, sans-serif; font-size: 12px; font-weight: 500; fill: #94a3b8; text-anchor: middle; dominant-baseline: middle; }
    .text-ai { fill: #c084fc; }
    .title { font-family: ui-sans-serif, system-ui, -apple-system, sans-serif; font-size: 16px; font-weight: 700; fill: #cbd5e1; }
    .path-anim { fill: none; stroke: #38bdf8; stroke-width: 2; stroke-dasharray: 8 6; animation: flow 1s linear infinite; marker-end: url(#arrow); }
    .path-cross { fill: none; stroke: #f43f5e; stroke-width: 3; stroke-dasharray: 8 6; animation: flow 1s linear infinite; filter: drop-shadow(0 0 4px rgba(244,63,94,0.4)); marker-end: url(#arrow-red); }
    @keyframes flow { to { stroke-dashoffset: -14; } }
  </style>

  <rect width="1250" height="650" class="bg"/>

  <!-- Lane 1: Build Time -->
  <rect x="30" y="40" width="550" height="580" class="subgraph"/>
  <text x="50" y="70" class="title">Build Time</text>

  <!-- Lane 1 Content -->
  <rect x="100" y="100" width="240" height="50" class="box box-file"/>
  <text x="220" y="126" class="text" style="fill:#fde047; font-size:13px;">protocol-calls.generated.json</text>

  <rect x="100" y="200" width="240" height="50" class="box"/>
  <text x="220" y="226" class="text">generate-search-index.mjs</text>

  <rect x="410" y="200" width="150" height="50" class="box"/>
  <text x="485" y="226" class="text">public/artifacts/</text>

  <!-- public/search/ subgraph -->
  <rect x="50" y="320" width="510" height="180" class="subgraph"/>
  <text x="70" y="350" class="title">public/search/</text>

  <rect x="70" y="400" width="140" height="50" class="box box-file"/>
  <text x="140" y="426" class="text" style="fill:#fde047; font-size:13px;">manifest.json</text>

  <rect x="235" y="400" width="140" height="50" class="box box-file"/>
  <text x="305" y="426" class="text" style="fill:#fde047; font-size:12px;">docs-{YYYY-MM}.json</text>

  <rect x="400" y="400" width="140" height="50" class="box box-file"/>
  <text x="470" y="426" class="text" style="fill:#fde047; font-size:12px;">mini-{YYYY-MM}.json</text>

  <!-- Lane 1 Arrows -->
  <path d="M 220 150 L 220 195" class="path-anim"/>
  
  <!-- Right to artifacts -->
  <path d="M 340 215 L 405 215" class="path-anim"/>
  <!-- Left from artifacts -->
  <path d="M 410 235 L 345 235" class="path-anim"/>
  <text x="375" y="175" class="text-sm">reads transcripts,</text>
  <text x="375" y="190" class="text-sm">chat, tldr</text>

  <!-- Script to Outputs -->
  <path d="M 220 250 L 220 280 L 140 280 L 140 395" class="path-anim"/>
  <path d="M 220 250 L 220 280 L 305 280 L 305 395" class="path-anim"/>
  <path d="M 220 250 L 220 280 L 470 280 L 470 395" class="path-anim"/>

  <!-- Lane 2: Runtime (Browser) -->
  <rect x="620" y="40" width="600" height="580" class="subgraph"/>
  <text x="640" y="70" class="title">Runtime (Browser)</text>

  <!-- Lane 2 Content -->
  <rect x="790" y="100" width="260" height="50" class="box"/>
  <text x="920" y="126" class="text">main.tsx bootstrap()</text>

  <rect x="790" y="190" width="260" height="40" class="box" stroke-dasharray="4"/>
  <use href="#icon-clock" x="840" y="200" width="20" height="20" color="#38bdf8"/>
  <text x="930" y="211" class="text" fill="#38bdf8">window.load</text>

  <rect x="790" y="270" width="260" height="60" class="box"/>
  <text x="920" y="290" class="text">Background Preload</text>
  <text x="920" y="315" class="text-sm">concurrency: 4, respects Save-Data</text>

  <rect x="790" y="370" width="260" height="60" class="box box-ui"/>
  <text x="920" y="401" class="text" style="fill:#6ee7b7; font-size:16px;">SearchIndexService</text>

  <rect x="630" y="375" width="110" height="50" class="box"/>
  <text x="685" y="393" class="text">IndexedDB</text>
  <text x="685" y="413" class="text">Cache</text>

  <rect x="1080" y="365" width="130" height="70" class="box box-human"/>
  <text x="1145" y="385" class="text" fill="#f43f5e">Runtime Fallback</text>
  <text x="1145" y="405" class="text-sm" fill="#fbcfe8">fetches /artifacts/...</text>
  <text x="1145" y="420" class="text-sm" fill="#fbcfe8">if shards fail</text>

  <rect x="790" y="480" width="260" height="50" class="box box-ui"/>
  <text x="920" y="506" class="text" style="fill:#6ee7b7; font-size:16px;">GlobalCallSearch UI</text>

  <!-- Lane 2 Arrows -->
  <!-- Cross-lane main.tsx to manifest.json -->
  <path d="M 790 125 L 600 125 L 600 425 L 215 425" class="path-cross"/>
  <rect x="585" y="265" width="40" height="20" fill="#0f172a" rx="4"/>
  <text x="605" y="275" class="text-sm" style="fill:#f43f5e; font-weight:700;">fetch</text>

  <!-- Vertical flow -->
  <path d="M 920 150 L 920 185" class="path-anim"/>
  <path d="M 920 230 L 920 265" class="path-anim"/>
  <path d="M 920 330 L 920 365" class="path-anim"/>
  <path d="M 920 430 L 920 475" class="path-anim"/>

  <!-- SearchIndexService <-> Cache -->
  <path d="M 790 390 L 745 390" class="path-anim"/>
  <path d="M 745 410 L 785 410" class="path-anim"/>

  <!-- SearchIndexService <-> Fallback -->
  <path d="M 1050 390 L 1075 390" class="path-cross"/>
  <path d="M 1080 410 L 1055 410" class="path-cross"/>

</svg>